# xmcd
#
# Track frame offsets:
#	150
#	14645
#	31735
#	42357
#	52142
#	64552
#	81370
#	92560
#	103457
#	115702
#
# Disc length: 1728
#
# Revision: 4
# Processed by: cddbd v1.5.1PL0 Copyright (c) Steve Scherf et al.
# Submitted via: dBpowerAMP V4.0
# Normalized: r3:TDELIM( - )
#
DISCID=8206be0a
DTITLE=Various Artist - Kooky Kountry
DYEAR=1900
DGENRE=Country
TTITLE0=Run C and W - Hold on im Comin'
TTITLE1=Ray Stevens - Along Came Jones
TTITLE2=Little Jimmy Dickens - May The Bird of Paradise Fly up Your Nose
TTITLE3=Murry Kellum - Long Tall Texan
TTITLE4=Jack Blanchard and Misty Morgan - Tennessee Bird Walk
TTITLE5=Johnny Cash - A Boy Named Sue
TTITLE6=Roger Miller - King of The Road
TTITLE7=Fendermen - Mule Skinner Blues
TTITLE8=Henhouse Five Plus Too - In The Mood
TTITLE9=Larry Verne - Mr. Custer
EXTD=
EXTT0=
EXTT1=
EXTT2=
EXTT3=
EXTT4=
EXTT5=
EXTT6=
EXTT7=
EXTT8=
EXTT9=
PLAYORDER=
